<?xml version="1.0" encoding="UTF-8"?>
<svg width="1200pt" height="1200pt" version="1.1" viewBox="0 0 1200 1200" xmlns="http://www.w3.org/2000/svg">
 <path d="m384 216c-93.094 0-168 74.906-168 168v432c0 93.094 74.906 168 168 168h432c93.094 0 168-74.906 168-168v-432c0-93.094-74.906-168-168-168zm456 96c26.531 0 48 21.469 48 48s-21.469 48-48 48-48-21.469-48-48 21.469-48 48-48zm-240 96c105.75 0 192 86.25 192 192s-86.25 192-192 192-192-86.25-192-192 86.25-192 192-192zm0 48c-79.828 0-144 64.172-144 144s64.172 144 144 144 144-64.172 144-144-64.172-144-144-144z"/>
</svg>
