<svg xmlns="http://www.w3.org/2000/svg" viewBox="0 0 576 512"><path fill="currentColor" d="M549.655 124.083c-6.281-23.65-24.787-42.276-48.284-48.597C458.781 64 288 64 288 64S117.22 64 74.629 75.486c-23.497 6.322-42.003 24.947-48.284 48.597C14.857 166.725 14.857 256 14.857 256s0 89.275 11.488 131.917c6.281 23.65 24.787 42.276 48.284 48.597C117.22 448 288 448 288 448s170.781 0 213.371-11.486c23.497-6.322 42.003-24.947 48.284-48.597C561.143 345.275 561.143 256 561.143 256s0-89.275-11.488-131.917zM232 338.5v-165l142 82.5-142 82.5z"/></svg>
